G75*
G70*
%OFA0B0*%
%FSLAX24Y24*%
%IPPOS*%
%LPD*%
%AMOC8*
5,1,8,0,0,1.08239X$1,22.5*
%
%ADD10C,0.0004*%
%ADD11R,0.0260X0.0800*%
%ADD12R,0.0591X0.0394*%
%ADD13R,0.0394X0.0591*%
%ADD14R,0.0591X0.0512*%
%ADD15C,0.0060*%
D10*
X000111Y005426D02*
X000117Y005687D01*
X000137Y005947D01*
X000169Y006206D01*
X000213Y006463D01*
X000270Y006717D01*
X000340Y006969D01*
X000422Y007217D01*
X000516Y007460D01*
X000621Y007698D01*
X000739Y007931D01*
X000867Y008158D01*
X001007Y008379D01*
X001157Y008592D01*
X001317Y008798D01*
X001488Y008995D01*
X001668Y009184D01*
X001857Y009364D01*
X002054Y009535D01*
X002260Y009695D01*
X002473Y009845D01*
X002694Y009985D01*
X002921Y010113D01*
X003154Y010231D01*
X003392Y010336D01*
X003635Y010430D01*
X003883Y010512D01*
X004135Y010582D01*
X004389Y010639D01*
X004646Y010683D01*
X004905Y010715D01*
X005165Y010735D01*
X005426Y010741D01*
X005687Y010735D01*
X005947Y010715D01*
X006206Y010683D01*
X006463Y010639D01*
X006717Y010582D01*
X006969Y010512D01*
X007217Y010430D01*
X007460Y010336D01*
X007698Y010231D01*
X007931Y010113D01*
X008158Y009985D01*
X008379Y009845D01*
X008592Y009695D01*
X008798Y009535D01*
X008995Y009364D01*
X009184Y009184D01*
X009364Y008995D01*
X009535Y008798D01*
X009695Y008592D01*
X009845Y008379D01*
X009985Y008158D01*
X010113Y007931D01*
X010231Y007698D01*
X010336Y007460D01*
X010430Y007217D01*
X010512Y006969D01*
X010582Y006717D01*
X010639Y006463D01*
X010683Y006206D01*
X010715Y005947D01*
X010735Y005687D01*
X010741Y005426D01*
X010735Y005165D01*
X010715Y004905D01*
X010683Y004646D01*
X010639Y004389D01*
X010582Y004135D01*
X010512Y003883D01*
X010430Y003635D01*
X010336Y003392D01*
X010231Y003154D01*
X010113Y002921D01*
X009985Y002694D01*
X009845Y002473D01*
X009695Y002260D01*
X009535Y002054D01*
X009364Y001857D01*
X009184Y001668D01*
X008995Y001488D01*
X008798Y001317D01*
X008592Y001157D01*
X008379Y001007D01*
X008158Y000867D01*
X007931Y000739D01*
X007698Y000621D01*
X007460Y000516D01*
X007217Y000422D01*
X006969Y000340D01*
X006717Y000270D01*
X006463Y000213D01*
X006206Y000169D01*
X005947Y000137D01*
X005687Y000117D01*
X005426Y000111D01*
X005165Y000117D01*
X004905Y000137D01*
X004646Y000169D01*
X004389Y000213D01*
X004135Y000270D01*
X003883Y000340D01*
X003635Y000422D01*
X003392Y000516D01*
X003154Y000621D01*
X002921Y000739D01*
X002694Y000867D01*
X002473Y001007D01*
X002260Y001157D01*
X002054Y001317D01*
X001857Y001488D01*
X001668Y001668D01*
X001488Y001857D01*
X001317Y002054D01*
X001157Y002260D01*
X001007Y002473D01*
X000867Y002694D01*
X000739Y002921D01*
X000621Y003154D01*
X000516Y003392D01*
X000422Y003635D01*
X000340Y003883D01*
X000270Y004135D01*
X000213Y004389D01*
X000169Y004646D01*
X000137Y004905D01*
X000117Y005165D01*
X000111Y005426D01*
D11*
X004676Y006636D03*
X005176Y006636D03*
X005676Y006636D03*
X006176Y006636D03*
X006176Y004216D03*
X005676Y004216D03*
X005176Y004216D03*
X004676Y004216D03*
D12*
X007024Y004442D03*
X007764Y004442D03*
X007764Y005426D03*
X007024Y005426D03*
X007024Y006410D03*
X007764Y006410D03*
X006583Y009166D03*
X005843Y009166D03*
X004615Y009166D03*
X003875Y009166D03*
D13*
X003457Y007843D03*
X003457Y007103D03*
X003457Y005796D03*
X003457Y005056D03*
X003457Y003749D03*
X003457Y003009D03*
X001686Y007103D03*
X001686Y007843D03*
D14*
X002473Y003005D03*
X002473Y003753D03*
X002571Y007099D03*
X002571Y007847D03*
D15*
X002459Y006180D02*
X000519Y006180D01*
X002459Y006180D02*
X002459Y005640D01*
X000519Y005640D01*
X000519Y006180D01*
X000519Y005699D02*
X002459Y005699D01*
X002459Y005758D02*
X000519Y005758D01*
X000519Y005817D02*
X002459Y005817D01*
X002459Y005876D02*
X000519Y005876D01*
X000519Y005935D02*
X002459Y005935D01*
X002459Y005994D02*
X000519Y005994D01*
X000519Y006053D02*
X002459Y006053D01*
X002459Y006112D02*
X000519Y006112D01*
X000519Y006171D02*
X002459Y006171D01*
X002459Y005212D02*
X000519Y005212D01*
X002459Y005212D02*
X002459Y004672D01*
X000519Y004672D01*
X000519Y005212D01*
X000519Y004731D02*
X002459Y004731D01*
X002459Y004790D02*
X000519Y004790D01*
X000519Y004849D02*
X002459Y004849D01*
X002459Y004908D02*
X000519Y004908D01*
X000519Y004967D02*
X002459Y004967D01*
X002459Y005026D02*
X000519Y005026D01*
X000519Y005085D02*
X002459Y005085D01*
X002459Y005144D02*
X000519Y005144D01*
X000519Y005203D02*
X002459Y005203D01*
X007348Y003109D02*
X008833Y001863D01*
X007348Y003109D02*
X007695Y003523D01*
X009180Y002277D01*
X008833Y001863D01*
X008882Y001922D02*
X008763Y001922D01*
X008692Y001981D02*
X008932Y001981D01*
X008981Y002040D02*
X008622Y002040D01*
X008552Y002099D02*
X009031Y002099D01*
X009080Y002158D02*
X008481Y002158D01*
X008411Y002217D02*
X009130Y002217D01*
X009179Y002276D02*
X008341Y002276D01*
X008270Y002335D02*
X009111Y002335D01*
X009041Y002394D02*
X008200Y002394D01*
X008130Y002453D02*
X008970Y002453D01*
X008900Y002512D02*
X008060Y002512D01*
X007989Y002571D02*
X008830Y002571D01*
X008759Y002630D02*
X007919Y002630D01*
X007849Y002689D02*
X008689Y002689D01*
X008619Y002748D02*
X007778Y002748D01*
X007708Y002807D02*
X008548Y002807D01*
X008478Y002866D02*
X007638Y002866D01*
X007567Y002925D02*
X008408Y002925D01*
X008337Y002984D02*
X007497Y002984D01*
X007427Y003043D02*
X008267Y003043D01*
X008197Y003102D02*
X007356Y003102D01*
X007392Y003161D02*
X008126Y003161D01*
X008056Y003220D02*
X007441Y003220D01*
X007490Y003279D02*
X007986Y003279D01*
X007915Y003338D02*
X007540Y003338D01*
X007589Y003397D02*
X007845Y003397D01*
X007775Y003456D02*
X007639Y003456D01*
X007688Y003515D02*
X007705Y003515D01*
X007971Y003851D02*
X009456Y002605D01*
X007971Y003851D02*
X008318Y004265D01*
X009803Y003019D01*
X009456Y002605D01*
X009505Y002664D02*
X009386Y002664D01*
X009315Y002723D02*
X009555Y002723D01*
X009604Y002782D02*
X009245Y002782D01*
X009175Y002841D02*
X009654Y002841D01*
X009703Y002900D02*
X009104Y002900D01*
X009034Y002959D02*
X009753Y002959D01*
X009802Y003018D02*
X008964Y003018D01*
X008893Y003077D02*
X009734Y003077D01*
X009664Y003136D02*
X008823Y003136D01*
X008753Y003195D02*
X009593Y003195D01*
X009523Y003254D02*
X008683Y003254D01*
X008612Y003313D02*
X009453Y003313D01*
X009382Y003372D02*
X008542Y003372D01*
X008472Y003431D02*
X009312Y003431D01*
X009242Y003490D02*
X008401Y003490D01*
X008331Y003549D02*
X009171Y003549D01*
X009101Y003608D02*
X008261Y003608D01*
X008190Y003667D02*
X009031Y003667D01*
X008960Y003726D02*
X008120Y003726D01*
X008050Y003785D02*
X008890Y003785D01*
X008820Y003844D02*
X007979Y003844D01*
X008015Y003903D02*
X008749Y003903D01*
X008679Y003962D02*
X008064Y003962D01*
X008113Y004021D02*
X008609Y004021D01*
X008538Y004080D02*
X008163Y004080D01*
X008212Y004139D02*
X008468Y004139D01*
X008398Y004198D02*
X008262Y004198D01*
X008311Y004257D02*
X008328Y004257D01*
X008393Y004672D02*
X010333Y004672D01*
X008393Y004672D02*
X008393Y005212D01*
X010333Y005212D01*
X010333Y004672D01*
X010333Y004731D02*
X008393Y004731D01*
X008393Y004790D02*
X010333Y004790D01*
X010333Y004849D02*
X008393Y004849D01*
X008393Y004908D02*
X010333Y004908D01*
X010333Y004967D02*
X008393Y004967D01*
X008393Y005026D02*
X010333Y005026D01*
X010333Y005085D02*
X008393Y005085D01*
X008393Y005144D02*
X010333Y005144D01*
X010333Y005203D02*
X008393Y005203D01*
X008393Y005640D02*
X010333Y005640D01*
X008393Y005640D02*
X008393Y006180D01*
X010333Y006180D01*
X010333Y005640D01*
X010333Y005699D02*
X008393Y005699D01*
X008393Y005758D02*
X010333Y005758D01*
X010333Y005817D02*
X008393Y005817D01*
X008393Y005876D02*
X010333Y005876D01*
X010333Y005935D02*
X008393Y005935D01*
X008393Y005994D02*
X010333Y005994D01*
X010333Y006053D02*
X008393Y006053D01*
X008393Y006112D02*
X010333Y006112D01*
X010333Y006171D02*
X008393Y006171D01*
X008318Y006587D02*
X009803Y007833D01*
X008318Y006587D02*
X007971Y007001D01*
X009456Y008247D01*
X009803Y007833D01*
X008388Y006646D02*
X008269Y006646D01*
X008219Y006705D02*
X008459Y006705D01*
X008529Y006764D02*
X008170Y006764D01*
X008120Y006823D02*
X008599Y006823D01*
X008670Y006882D02*
X008071Y006882D01*
X008021Y006941D02*
X008740Y006941D01*
X008810Y007000D02*
X007972Y007000D01*
X008040Y007059D02*
X008881Y007059D01*
X008951Y007118D02*
X008110Y007118D01*
X008181Y007177D02*
X009021Y007177D01*
X009091Y007236D02*
X008251Y007236D01*
X008321Y007295D02*
X009162Y007295D01*
X009232Y007354D02*
X008392Y007354D01*
X008462Y007413D02*
X009302Y007413D01*
X009373Y007472D02*
X008532Y007472D01*
X008603Y007531D02*
X009443Y007531D01*
X009513Y007590D02*
X008673Y007590D01*
X008743Y007649D02*
X009584Y007649D01*
X009654Y007708D02*
X008814Y007708D01*
X008884Y007767D02*
X009724Y007767D01*
X009795Y007826D02*
X008954Y007826D01*
X009025Y007885D02*
X009759Y007885D01*
X009710Y007944D02*
X009095Y007944D01*
X009165Y008003D02*
X009661Y008003D01*
X009611Y008062D02*
X009236Y008062D01*
X009306Y008121D02*
X009562Y008121D01*
X009512Y008180D02*
X009376Y008180D01*
X009446Y008239D02*
X009463Y008239D01*
X009180Y008575D02*
X007695Y007329D01*
X007348Y007743D01*
X008833Y008989D01*
X009180Y008575D01*
X007765Y007388D02*
X007646Y007388D01*
X007596Y007447D02*
X007836Y007447D01*
X007906Y007506D02*
X007547Y007506D01*
X007497Y007565D02*
X007976Y007565D01*
X008047Y007624D02*
X007448Y007624D01*
X007398Y007683D02*
X008117Y007683D01*
X008187Y007742D02*
X007349Y007742D01*
X007417Y007801D02*
X008258Y007801D01*
X008328Y007860D02*
X007487Y007860D01*
X007558Y007919D02*
X008398Y007919D01*
X008468Y007978D02*
X007628Y007978D01*
X007698Y008037D02*
X008539Y008037D01*
X008609Y008096D02*
X007769Y008096D01*
X007839Y008155D02*
X008679Y008155D01*
X008750Y008214D02*
X007909Y008214D01*
X007980Y008273D02*
X008820Y008273D01*
X008890Y008332D02*
X008050Y008332D01*
X008120Y008391D02*
X008961Y008391D01*
X009031Y008450D02*
X008191Y008450D01*
X008261Y008509D02*
X009101Y008509D01*
X009172Y008568D02*
X008331Y008568D01*
X008402Y008627D02*
X009136Y008627D01*
X009087Y008686D02*
X008472Y008686D01*
X008542Y008745D02*
X009038Y008745D01*
X008988Y008804D02*
X008613Y008804D01*
X008683Y008863D02*
X008939Y008863D01*
X008889Y008922D02*
X008753Y008922D01*
X008823Y008981D02*
X008840Y008981D01*
M02*
