G75*
G70*
%OFA0B0*%
%FSLAX24Y24*%
%IPPOS*%
%LPD*%
%AMOC8*
5,1,8,0,0,1.08239X$1,22.5*
%
%ADD10C,0.0004*%
%ADD11C,0.0100*%
%ADD12C,0.4331*%
%ADD13C,0.0172*%
%ADD14C,0.0039*%
%ADD15C,0.0120*%
%ADD16OC8,0.0277*%
D10*
X000111Y005426D02*
X000117Y005687D01*
X000137Y005947D01*
X000169Y006206D01*
X000213Y006463D01*
X000270Y006717D01*
X000340Y006969D01*
X000422Y007217D01*
X000516Y007460D01*
X000621Y007698D01*
X000739Y007931D01*
X000867Y008158D01*
X001007Y008379D01*
X001157Y008592D01*
X001317Y008798D01*
X001488Y008995D01*
X001668Y009184D01*
X001857Y009364D01*
X002054Y009535D01*
X002260Y009695D01*
X002473Y009845D01*
X002694Y009985D01*
X002921Y010113D01*
X003154Y010231D01*
X003392Y010336D01*
X003635Y010430D01*
X003883Y010512D01*
X004135Y010582D01*
X004389Y010639D01*
X004646Y010683D01*
X004905Y010715D01*
X005165Y010735D01*
X005426Y010741D01*
X005687Y010735D01*
X005947Y010715D01*
X006206Y010683D01*
X006463Y010639D01*
X006717Y010582D01*
X006969Y010512D01*
X007217Y010430D01*
X007460Y010336D01*
X007698Y010231D01*
X007931Y010113D01*
X008158Y009985D01*
X008379Y009845D01*
X008592Y009695D01*
X008798Y009535D01*
X008995Y009364D01*
X009184Y009184D01*
X009364Y008995D01*
X009535Y008798D01*
X009695Y008592D01*
X009845Y008379D01*
X009985Y008158D01*
X010113Y007931D01*
X010231Y007698D01*
X010336Y007460D01*
X010430Y007217D01*
X010512Y006969D01*
X010582Y006717D01*
X010639Y006463D01*
X010683Y006206D01*
X010715Y005947D01*
X010735Y005687D01*
X010741Y005426D01*
X010735Y005165D01*
X010715Y004905D01*
X010683Y004646D01*
X010639Y004389D01*
X010582Y004135D01*
X010512Y003883D01*
X010430Y003635D01*
X010336Y003392D01*
X010231Y003154D01*
X010113Y002921D01*
X009985Y002694D01*
X009845Y002473D01*
X009695Y002260D01*
X009535Y002054D01*
X009364Y001857D01*
X009184Y001668D01*
X008995Y001488D01*
X008798Y001317D01*
X008592Y001157D01*
X008379Y001007D01*
X008158Y000867D01*
X007931Y000739D01*
X007698Y000621D01*
X007460Y000516D01*
X007217Y000422D01*
X006969Y000340D01*
X006717Y000270D01*
X006463Y000213D01*
X006206Y000169D01*
X005947Y000137D01*
X005687Y000117D01*
X005426Y000111D01*
X005165Y000117D01*
X004905Y000137D01*
X004646Y000169D01*
X004389Y000213D01*
X004135Y000270D01*
X003883Y000340D01*
X003635Y000422D01*
X003392Y000516D01*
X003154Y000621D01*
X002921Y000739D01*
X002694Y000867D01*
X002473Y001007D01*
X002260Y001157D01*
X002054Y001317D01*
X001857Y001488D01*
X001668Y001668D01*
X001488Y001857D01*
X001317Y002054D01*
X001157Y002260D01*
X001007Y002473D01*
X000867Y002694D01*
X000739Y002921D01*
X000621Y003154D01*
X000516Y003392D01*
X000422Y003635D01*
X000340Y003883D01*
X000270Y004135D01*
X000213Y004389D01*
X000169Y004646D01*
X000137Y004905D01*
X000117Y005165D01*
X000111Y005426D01*
D11*
X004779Y001440D02*
X005046Y001440D01*
X005046Y001841D01*
X005239Y001774D02*
X005239Y001641D01*
X005306Y001574D01*
X005506Y001574D01*
X005373Y001574D02*
X005239Y001440D01*
X005506Y001440D02*
X005506Y001841D01*
X005306Y001841D01*
X005239Y001774D01*
X005699Y001774D02*
X005766Y001841D01*
X005900Y001841D01*
X005966Y001774D01*
X005966Y001707D01*
X005900Y001641D01*
X005766Y001641D01*
X005699Y001574D01*
X005699Y001507D01*
X005766Y001440D01*
X005900Y001440D01*
X005966Y001507D01*
D12*
X005426Y005426D03*
D13*
X007992Y009322D02*
X008078Y009236D01*
X007935Y008989D01*
X007661Y008915D01*
X007414Y009058D01*
X007340Y009332D01*
X007483Y009579D01*
X007757Y009653D01*
X008004Y009510D01*
X008078Y009236D01*
X007939Y009254D01*
X007850Y009100D01*
X007679Y009054D01*
X007525Y009143D01*
X007479Y009314D01*
X007568Y009468D01*
X007739Y009514D01*
X007893Y009425D01*
X007939Y009254D01*
X007801Y009273D01*
X007765Y009210D01*
X007698Y009192D01*
X007635Y009228D01*
X007617Y009295D01*
X007653Y009358D01*
X007720Y009376D01*
X007783Y009340D01*
X007801Y009273D01*
X007991Y001531D02*
X008077Y001617D01*
X008003Y001342D01*
X007758Y001200D01*
X007483Y001274D01*
X007341Y001519D01*
X007415Y001794D01*
X007660Y001936D01*
X007935Y001862D01*
X008077Y001617D01*
X007939Y001598D01*
X007893Y001427D01*
X007739Y001338D01*
X007568Y001384D01*
X007479Y001538D01*
X007525Y001709D01*
X007679Y001798D01*
X007850Y001752D01*
X007939Y001598D01*
X007800Y001580D01*
X007782Y001512D01*
X007721Y001477D01*
X007653Y001495D01*
X007618Y001556D01*
X007636Y001624D01*
X007697Y001659D01*
X007765Y001641D01*
X007800Y001580D01*
D14*
X002530Y001969D02*
X001950Y001969D01*
X001912Y002007D02*
X002562Y002007D01*
X002552Y002007D02*
X002993Y002007D01*
X002939Y002044D02*
X002584Y002044D01*
X002594Y002044D02*
X001875Y002044D01*
X001837Y002082D02*
X002625Y002082D01*
X002615Y002082D02*
X002885Y002082D01*
X002831Y002120D02*
X002647Y002120D01*
X002657Y002120D02*
X001799Y002120D01*
X001761Y002158D02*
X002689Y002158D01*
X002679Y002158D02*
X002776Y002158D01*
X002722Y002196D02*
X002711Y002196D01*
X002715Y002201D02*
X002259Y001659D01*
X002969Y001162D01*
X003323Y001776D01*
X002715Y002201D01*
X002721Y002196D02*
X001723Y002196D01*
X001685Y002234D02*
X002683Y002234D01*
X002721Y002196D02*
X002266Y001653D01*
X001653Y002266D01*
X002196Y002721D01*
X002721Y002196D01*
X002645Y002272D02*
X001660Y002272D01*
X001650Y002272D02*
X001674Y002272D01*
X001659Y002259D02*
X001162Y002969D01*
X001776Y003323D01*
X002201Y002715D01*
X001659Y002259D01*
X001623Y002310D02*
X001719Y002310D01*
X001705Y002310D02*
X002607Y002310D01*
X002569Y002348D02*
X001751Y002348D01*
X001764Y002348D02*
X001597Y002348D01*
X001570Y002386D02*
X001809Y002386D01*
X001796Y002386D02*
X002531Y002386D01*
X002493Y002424D02*
X001841Y002424D01*
X001854Y002424D02*
X001543Y002424D01*
X001517Y002461D02*
X001899Y002461D01*
X001887Y002461D02*
X002456Y002461D01*
X002418Y002499D02*
X001932Y002499D01*
X001944Y002499D02*
X001490Y002499D01*
X001464Y002537D02*
X001989Y002537D01*
X001977Y002537D02*
X002380Y002537D01*
X002342Y002575D02*
X002022Y002575D01*
X002034Y002575D02*
X001437Y002575D01*
X001411Y002613D02*
X002080Y002613D01*
X002068Y002613D02*
X002304Y002613D01*
X002266Y002651D02*
X002113Y002651D01*
X002125Y002651D02*
X001384Y002651D01*
X001358Y002689D02*
X002170Y002689D01*
X002158Y002689D02*
X002228Y002689D01*
X002193Y002727D02*
X001331Y002727D01*
X001304Y002765D02*
X002166Y002765D01*
X002140Y002803D02*
X001278Y002803D01*
X001251Y002841D02*
X002113Y002841D01*
X002087Y002879D02*
X001225Y002879D01*
X001198Y002916D02*
X002060Y002916D01*
X002034Y002954D02*
X001172Y002954D01*
X001166Y002962D02*
X000800Y003747D01*
X001466Y003988D01*
X001779Y003316D01*
X001166Y002962D01*
X001152Y002992D02*
X001219Y002992D01*
X001202Y002992D02*
X002007Y002992D01*
X001981Y003030D02*
X001268Y003030D01*
X001285Y003030D02*
X001134Y003030D01*
X001116Y003068D02*
X001350Y003068D01*
X001334Y003068D02*
X001954Y003068D01*
X001927Y003106D02*
X001400Y003106D01*
X001416Y003106D02*
X001099Y003106D01*
X001081Y003144D02*
X001481Y003144D01*
X001466Y003144D02*
X001901Y003144D01*
X001874Y003182D02*
X001531Y003182D01*
X001547Y003182D02*
X001063Y003182D01*
X001046Y003220D02*
X001612Y003220D01*
X001597Y003220D02*
X001848Y003220D01*
X001821Y003258D02*
X001663Y003258D01*
X001678Y003258D02*
X001028Y003258D01*
X001010Y003296D02*
X001743Y003296D01*
X001729Y003296D02*
X001795Y003296D01*
X001771Y003334D02*
X000993Y003334D01*
X000975Y003371D02*
X001754Y003371D01*
X001736Y003409D02*
X000957Y003409D01*
X000940Y003447D02*
X001718Y003447D01*
X001701Y003485D02*
X000922Y003485D01*
X000904Y003523D02*
X001683Y003523D01*
X001665Y003561D02*
X000886Y003561D01*
X000869Y003599D02*
X001648Y003599D01*
X001630Y003637D02*
X000851Y003637D01*
X000833Y003675D02*
X001612Y003675D01*
X001595Y003713D02*
X000816Y003713D01*
X000803Y003738D02*
X000579Y004575D01*
X001277Y004698D01*
X001468Y003982D01*
X000803Y003738D01*
X000800Y003751D02*
X000836Y003751D01*
X000810Y003751D02*
X001577Y003751D01*
X001559Y003788D02*
X000915Y003788D01*
X000940Y003788D02*
X000790Y003788D01*
X000779Y003826D02*
X001044Y003826D01*
X001019Y003826D02*
X001542Y003826D01*
X001524Y003864D02*
X001124Y003864D01*
X001147Y003864D02*
X000769Y003864D01*
X000759Y003902D02*
X001251Y003902D01*
X001228Y003902D02*
X001506Y003902D01*
X001489Y003940D02*
X001333Y003940D01*
X001355Y003940D02*
X000749Y003940D01*
X000739Y003978D02*
X001458Y003978D01*
X001471Y003978D02*
X001437Y003978D01*
X001459Y004016D02*
X000729Y004016D01*
X000718Y004054D02*
X001449Y004054D01*
X001439Y004092D02*
X000708Y004092D01*
X000698Y004130D02*
X001429Y004130D01*
X001419Y004168D02*
X000688Y004168D01*
X000678Y004206D02*
X001408Y004206D01*
X001398Y004243D02*
X000668Y004243D01*
X000657Y004281D02*
X001388Y004281D01*
X001378Y004319D02*
X000647Y004319D01*
X000637Y004357D02*
X001368Y004357D01*
X001358Y004395D02*
X000627Y004395D01*
X000617Y004433D02*
X001348Y004433D01*
X001337Y004471D02*
X000607Y004471D01*
X000596Y004509D02*
X001327Y004509D01*
X001317Y004547D02*
X000586Y004547D01*
X000580Y004567D02*
X000505Y005430D01*
X001213Y005429D01*
X001278Y004691D01*
X000580Y004567D01*
X000579Y004585D02*
X000679Y004585D01*
X000631Y004585D02*
X001307Y004585D01*
X001297Y004623D02*
X000847Y004623D01*
X000893Y004623D02*
X000575Y004623D01*
X000572Y004660D02*
X001107Y004660D01*
X001063Y004660D02*
X001287Y004660D01*
X001277Y004698D02*
X000569Y004698D01*
X000565Y004736D02*
X001274Y004736D01*
X001270Y004774D02*
X000562Y004774D01*
X000559Y004812D02*
X001267Y004812D01*
X001264Y004850D02*
X000555Y004850D01*
X000552Y004888D02*
X001261Y004888D01*
X001257Y004926D02*
X000549Y004926D01*
X000545Y004964D02*
X001254Y004964D01*
X001251Y005002D02*
X000542Y005002D01*
X000539Y005040D02*
X001247Y005040D01*
X001244Y005078D02*
X000535Y005078D01*
X000532Y005115D02*
X001241Y005115D01*
X001237Y005153D02*
X000529Y005153D01*
X000526Y005191D02*
X001234Y005191D01*
X001231Y005229D02*
X000522Y005229D01*
X000519Y005267D02*
X001227Y005267D01*
X001224Y005305D02*
X000516Y005305D01*
X000512Y005343D02*
X001221Y005343D01*
X001217Y005381D02*
X000509Y005381D01*
X000506Y005419D02*
X001214Y005419D01*
X001213Y005422D02*
X000505Y005421D01*
X000580Y006284D01*
X001278Y006161D01*
X001213Y005422D01*
X001216Y005457D02*
X000508Y005457D01*
X000511Y005495D02*
X001220Y005495D01*
X001223Y005532D02*
X000514Y005532D01*
X000518Y005570D02*
X001226Y005570D01*
X001230Y005608D02*
X000521Y005608D01*
X000524Y005646D02*
X001233Y005646D01*
X001236Y005684D02*
X000528Y005684D01*
X000531Y005722D02*
X001239Y005722D01*
X001243Y005760D02*
X000534Y005760D01*
X000538Y005798D02*
X001246Y005798D01*
X001249Y005836D02*
X000541Y005836D01*
X000544Y005874D02*
X001253Y005874D01*
X001256Y005912D02*
X000547Y005912D01*
X000551Y005950D02*
X001259Y005950D01*
X001263Y005987D02*
X000554Y005987D01*
X000557Y006025D02*
X001266Y006025D01*
X001269Y006063D02*
X000561Y006063D01*
X000564Y006101D02*
X001273Y006101D01*
X001276Y006139D02*
X000567Y006139D01*
X000571Y006177D02*
X001187Y006177D01*
X001144Y006177D02*
X001283Y006177D01*
X001277Y006154D02*
X000579Y006276D01*
X000803Y007113D01*
X001468Y006870D01*
X001277Y006154D01*
X001293Y006215D02*
X000928Y006215D01*
X000973Y006215D02*
X000574Y006215D01*
X000577Y006253D02*
X000759Y006253D01*
X000712Y006253D02*
X001303Y006253D01*
X001313Y006291D02*
X000582Y006291D01*
X000593Y006329D02*
X001323Y006329D01*
X001334Y006367D02*
X000603Y006367D01*
X000613Y006404D02*
X001344Y006404D01*
X001354Y006442D02*
X000623Y006442D01*
X000633Y006480D02*
X001364Y006480D01*
X001374Y006518D02*
X000643Y006518D01*
X000654Y006556D02*
X001384Y006556D01*
X001395Y006594D02*
X000664Y006594D01*
X000674Y006632D02*
X001405Y006632D01*
X001415Y006670D02*
X000684Y006670D01*
X000694Y006708D02*
X001425Y006708D01*
X001435Y006746D02*
X000704Y006746D01*
X000715Y006784D02*
X001445Y006784D01*
X001455Y006822D02*
X000725Y006822D01*
X000735Y006859D02*
X001466Y006859D01*
X001466Y006863D02*
X000800Y007105D01*
X001166Y007890D01*
X001779Y007535D01*
X001466Y006863D01*
X001482Y006897D02*
X001372Y006897D01*
X001393Y006897D02*
X000745Y006897D01*
X000755Y006935D02*
X001290Y006935D01*
X001267Y006935D02*
X001500Y006935D01*
X001517Y006973D02*
X001163Y006973D01*
X001186Y006973D02*
X000765Y006973D01*
X000776Y007011D02*
X001082Y007011D01*
X001059Y007011D02*
X001535Y007011D01*
X001553Y007049D02*
X000954Y007049D01*
X000979Y007049D02*
X000786Y007049D01*
X000796Y007087D02*
X000875Y007087D01*
X000850Y007087D02*
X001570Y007087D01*
X001588Y007125D02*
X000809Y007125D01*
X000827Y007163D02*
X001606Y007163D01*
X001623Y007201D02*
X000844Y007201D01*
X000862Y007239D02*
X001641Y007239D01*
X001659Y007276D02*
X000880Y007276D01*
X000898Y007314D02*
X001676Y007314D01*
X001694Y007352D02*
X000915Y007352D01*
X000933Y007390D02*
X001712Y007390D01*
X001729Y007428D02*
X000951Y007428D01*
X000968Y007466D02*
X001747Y007466D01*
X001765Y007504D02*
X000986Y007504D01*
X001004Y007542D02*
X001768Y007542D01*
X001753Y007542D02*
X001785Y007542D01*
X001776Y007529D02*
X001162Y007883D01*
X002024Y007883D01*
X002050Y007921D02*
X001188Y007921D01*
X001178Y007883D02*
X001163Y007883D01*
X001162Y007883D02*
X001659Y008592D01*
X002201Y008136D01*
X001776Y007529D01*
X001811Y007580D02*
X001688Y007580D01*
X001702Y007580D02*
X001021Y007580D01*
X001039Y007618D02*
X001637Y007618D01*
X001622Y007618D02*
X001838Y007618D01*
X001864Y007656D02*
X001556Y007656D01*
X001571Y007656D02*
X001057Y007656D01*
X001074Y007694D02*
X001506Y007694D01*
X001490Y007694D02*
X001891Y007694D01*
X001918Y007731D02*
X001424Y007731D01*
X001440Y007731D02*
X001092Y007731D01*
X001110Y007769D02*
X001375Y007769D01*
X001359Y007769D02*
X001944Y007769D01*
X001971Y007807D02*
X001293Y007807D01*
X001309Y007807D02*
X001127Y007807D01*
X001145Y007845D02*
X001243Y007845D01*
X001227Y007845D02*
X001997Y007845D01*
X002077Y007959D02*
X001215Y007959D01*
X001241Y007997D02*
X002103Y007997D01*
X002130Y008035D02*
X001268Y008035D01*
X001295Y008073D02*
X002156Y008073D01*
X002183Y008111D02*
X001321Y008111D01*
X001348Y008149D02*
X002187Y008149D01*
X002175Y008149D02*
X002214Y008149D01*
X002196Y008131D02*
X001653Y008586D01*
X002266Y009199D01*
X002721Y008655D01*
X002196Y008131D01*
X002142Y008186D02*
X001374Y008186D01*
X001401Y008224D02*
X002096Y008224D01*
X002085Y008224D02*
X002290Y008224D01*
X002328Y008262D02*
X002039Y008262D01*
X002051Y008262D02*
X001427Y008262D01*
X001454Y008300D02*
X002006Y008300D01*
X001994Y008300D02*
X002366Y008300D01*
X002403Y008338D02*
X001949Y008338D01*
X001961Y008338D02*
X001480Y008338D01*
X001507Y008376D02*
X001916Y008376D01*
X001904Y008376D02*
X002441Y008376D01*
X002479Y008414D02*
X001858Y008414D01*
X001871Y008414D02*
X001534Y008414D01*
X001560Y008452D02*
X001826Y008452D01*
X001813Y008452D02*
X002517Y008452D01*
X002555Y008490D02*
X001768Y008490D01*
X001781Y008490D02*
X001587Y008490D01*
X001613Y008528D02*
X001736Y008528D01*
X001722Y008528D02*
X002593Y008528D01*
X002631Y008566D02*
X001677Y008566D01*
X001690Y008566D02*
X001640Y008566D01*
X001671Y008603D02*
X002669Y008603D01*
X002707Y008641D02*
X001709Y008641D01*
X001747Y008679D02*
X002701Y008679D01*
X002691Y008679D02*
X002756Y008679D01*
X002715Y008651D02*
X002259Y009193D01*
X002969Y009690D01*
X003323Y009076D01*
X002715Y008651D01*
X002669Y008717D02*
X001785Y008717D01*
X001822Y008755D02*
X002637Y008755D01*
X002627Y008755D02*
X002864Y008755D01*
X002810Y008717D02*
X002659Y008717D01*
X002605Y008793D02*
X001860Y008793D01*
X001898Y008831D02*
X002574Y008831D01*
X002564Y008831D02*
X002973Y008831D01*
X003027Y008869D02*
X002532Y008869D01*
X002542Y008869D02*
X001936Y008869D01*
X001974Y008907D02*
X002510Y008907D01*
X002500Y008907D02*
X003081Y008907D01*
X003135Y008945D02*
X002468Y008945D01*
X002479Y008945D02*
X002012Y008945D01*
X002050Y008983D02*
X002447Y008983D01*
X002436Y008983D02*
X003189Y008983D01*
X003244Y009021D02*
X002404Y009021D01*
X002415Y009021D02*
X002088Y009021D01*
X002126Y009058D02*
X002383Y009058D01*
X002373Y009058D02*
X003298Y009058D01*
X003316Y009072D02*
X002962Y009686D01*
X003747Y010052D01*
X003988Y009386D01*
X003316Y009072D01*
X003311Y009096D02*
X002341Y009096D01*
X002352Y009096D02*
X002164Y009096D01*
X002202Y009134D02*
X002320Y009134D01*
X002309Y009134D02*
X003289Y009134D01*
X003281Y009134D02*
X003449Y009134D01*
X003368Y009096D02*
X003302Y009096D01*
X003267Y009172D02*
X002277Y009172D01*
X002288Y009172D02*
X002239Y009172D01*
X002283Y009210D02*
X003245Y009210D01*
X003237Y009210D02*
X003612Y009210D01*
X003693Y009248D02*
X003215Y009248D01*
X003223Y009248D02*
X002338Y009248D01*
X002392Y009286D02*
X003202Y009286D01*
X003193Y009286D02*
X003774Y009286D01*
X003856Y009324D02*
X003171Y009324D01*
X003180Y009324D02*
X002446Y009324D01*
X002500Y009362D02*
X003158Y009362D01*
X003149Y009362D02*
X003937Y009362D01*
X003982Y009383D02*
X003738Y010049D01*
X004575Y010273D01*
X004698Y009575D01*
X003982Y009383D01*
X003983Y009400D02*
X003127Y009400D01*
X003136Y009400D02*
X002554Y009400D01*
X002608Y009438D02*
X003114Y009438D01*
X003105Y009438D02*
X003970Y009438D01*
X003962Y009438D02*
X004184Y009438D01*
X004043Y009400D02*
X003976Y009400D01*
X003956Y009475D02*
X003083Y009475D01*
X003092Y009475D02*
X002662Y009475D01*
X002717Y009513D02*
X003071Y009513D01*
X003061Y009513D02*
X003942Y009513D01*
X003934Y009513D02*
X004468Y009513D01*
X004609Y009551D02*
X003920Y009551D01*
X003928Y009551D02*
X003039Y009551D01*
X003049Y009551D02*
X002771Y009551D01*
X002825Y009589D02*
X003027Y009589D01*
X003017Y009589D02*
X003915Y009589D01*
X003906Y009589D02*
X004695Y009589D01*
X004688Y009589D02*
X004866Y009589D01*
X004691Y009574D02*
X004567Y010271D01*
X005430Y010347D01*
X005429Y009638D01*
X004691Y009574D01*
X004689Y009627D02*
X003893Y009627D01*
X003901Y009627D02*
X002996Y009627D01*
X003005Y009627D02*
X002879Y009627D01*
X002933Y009665D02*
X002983Y009665D01*
X002974Y009665D02*
X003887Y009665D01*
X003879Y009665D02*
X004682Y009665D01*
X004675Y009665D02*
X005429Y009665D01*
X005422Y009665D02*
X006177Y009665D01*
X006170Y009665D02*
X006973Y009665D01*
X006965Y009665D02*
X007878Y009665D01*
X007869Y009665D02*
X007919Y009665D01*
X007890Y009686D02*
X007535Y009072D01*
X006863Y009386D01*
X007105Y010052D01*
X007890Y009686D01*
X007883Y009690D02*
X008592Y009193D01*
X008136Y008651D01*
X007529Y009076D01*
X007883Y009690D01*
X007853Y009703D02*
X006978Y009703D01*
X006987Y009703D02*
X006176Y009703D01*
X006184Y009703D02*
X005422Y009703D01*
X005429Y009703D02*
X004668Y009703D01*
X004675Y009703D02*
X003865Y009703D01*
X003873Y009703D02*
X002999Y009703D01*
X003080Y009741D02*
X003860Y009741D01*
X003851Y009741D02*
X004669Y009741D01*
X004661Y009741D02*
X005429Y009741D01*
X005422Y009741D02*
X006190Y009741D01*
X006183Y009741D02*
X007001Y009741D01*
X006992Y009741D02*
X007772Y009741D01*
X007690Y009779D02*
X007006Y009779D01*
X007015Y009779D02*
X006189Y009779D01*
X006197Y009779D02*
X005422Y009779D01*
X005430Y009779D02*
X004654Y009779D01*
X004662Y009779D02*
X003837Y009779D01*
X003846Y009779D02*
X003161Y009779D01*
X003243Y009817D02*
X003832Y009817D01*
X003823Y009817D02*
X004655Y009817D01*
X004648Y009817D02*
X005430Y009817D01*
X005422Y009817D02*
X006204Y009817D01*
X006196Y009817D02*
X007028Y009817D01*
X007020Y009817D02*
X007609Y009817D01*
X007528Y009855D02*
X007033Y009855D01*
X007042Y009855D02*
X006203Y009855D01*
X006211Y009855D02*
X005422Y009855D01*
X005430Y009855D02*
X004641Y009855D01*
X004649Y009855D02*
X003809Y009855D01*
X003818Y009855D02*
X003324Y009855D01*
X003405Y009893D02*
X003804Y009893D01*
X003796Y009893D02*
X004642Y009893D01*
X004634Y009893D02*
X005430Y009893D01*
X005422Y009893D02*
X006217Y009893D01*
X006209Y009893D02*
X007056Y009893D01*
X007047Y009893D02*
X007446Y009893D01*
X007365Y009930D02*
X007061Y009930D01*
X007070Y009930D02*
X006216Y009930D01*
X006224Y009930D02*
X005422Y009930D01*
X005430Y009930D02*
X004628Y009930D01*
X004636Y009930D02*
X003782Y009930D01*
X003791Y009930D02*
X003486Y009930D01*
X003568Y009968D02*
X003777Y009968D01*
X003768Y009968D02*
X004629Y009968D01*
X004621Y009968D02*
X005430Y009968D01*
X005422Y009968D02*
X006231Y009968D01*
X006223Y009968D02*
X007084Y009968D01*
X007075Y009968D02*
X007284Y009968D01*
X007203Y010006D02*
X007088Y010006D01*
X007098Y010006D02*
X006229Y010006D01*
X006238Y010006D02*
X005422Y010006D01*
X005430Y010006D02*
X004614Y010006D01*
X004622Y010006D02*
X003754Y010006D01*
X003763Y010006D02*
X003649Y010006D01*
X003730Y010044D02*
X003749Y010044D01*
X003740Y010044D02*
X004616Y010044D01*
X004607Y010044D02*
X005430Y010044D01*
X005422Y010044D02*
X006244Y010044D01*
X006236Y010044D02*
X007112Y010044D01*
X007113Y010049D02*
X006870Y009383D01*
X006154Y009575D01*
X006276Y010273D01*
X007113Y010049D01*
X007121Y010044D02*
X007102Y010044D01*
X006989Y010082D02*
X006243Y010082D01*
X006251Y010082D02*
X005422Y010082D01*
X005430Y010082D02*
X004601Y010082D01*
X004609Y010082D02*
X003863Y010082D01*
X004004Y010120D02*
X004602Y010120D01*
X004594Y010120D02*
X005430Y010120D01*
X005422Y010120D02*
X006258Y010120D01*
X006249Y010120D02*
X006847Y010120D01*
X006706Y010158D02*
X006256Y010158D01*
X006264Y010158D02*
X005422Y010158D01*
X005430Y010158D02*
X004587Y010158D01*
X004596Y010158D02*
X004146Y010158D01*
X004287Y010196D02*
X004589Y010196D01*
X004581Y010196D02*
X005430Y010196D01*
X005422Y010196D02*
X006271Y010196D01*
X006263Y010196D02*
X006564Y010196D01*
X006423Y010234D02*
X006269Y010234D01*
X006278Y010234D02*
X005422Y010234D01*
X005430Y010234D02*
X004574Y010234D01*
X004582Y010234D02*
X004429Y010234D01*
X004569Y010272D02*
X005430Y010272D01*
X005422Y010272D02*
X006283Y010272D01*
X006281Y010272D02*
X006276Y010272D01*
X006284Y010271D02*
X006161Y009574D01*
X005422Y009638D01*
X005421Y010347D01*
X006284Y010271D01*
X005850Y010310D02*
X005422Y010310D01*
X005430Y010310D02*
X005002Y010310D01*
X004576Y010272D02*
X004570Y010272D01*
X004681Y009627D02*
X005300Y009627D01*
X005552Y009627D02*
X006170Y009627D01*
X006163Y009627D02*
X006959Y009627D01*
X006951Y009627D02*
X007856Y009627D01*
X007847Y009627D02*
X007973Y009627D01*
X008027Y009589D02*
X007825Y009589D01*
X007834Y009589D02*
X006937Y009589D01*
X006945Y009589D02*
X006156Y009589D01*
X006164Y009589D02*
X005985Y009589D01*
X006242Y009551D02*
X006931Y009551D01*
X006923Y009551D02*
X007812Y009551D01*
X007803Y009551D02*
X008081Y009551D01*
X008135Y009513D02*
X007781Y009513D01*
X007790Y009513D02*
X006910Y009513D01*
X006918Y009513D02*
X006384Y009513D01*
X006526Y009475D02*
X006904Y009475D01*
X006896Y009475D02*
X007768Y009475D01*
X007759Y009475D02*
X008189Y009475D01*
X008243Y009438D02*
X007737Y009438D01*
X007747Y009438D02*
X006882Y009438D01*
X006890Y009438D02*
X006667Y009438D01*
X006809Y009400D02*
X006876Y009400D01*
X006868Y009400D02*
X007725Y009400D01*
X007716Y009400D02*
X008297Y009400D01*
X008352Y009362D02*
X007694Y009362D01*
X007703Y009362D02*
X006915Y009362D01*
X006996Y009324D02*
X007681Y009324D01*
X007672Y009324D02*
X008406Y009324D01*
X008460Y009286D02*
X007650Y009286D01*
X007659Y009286D02*
X007077Y009286D01*
X007159Y009248D02*
X007637Y009248D01*
X007628Y009248D02*
X008514Y009248D01*
X008568Y009210D02*
X007606Y009210D01*
X007615Y009210D02*
X007240Y009210D01*
X007321Y009172D02*
X007593Y009172D01*
X007584Y009172D02*
X008575Y009172D01*
X008563Y009172D02*
X008612Y009172D01*
X008586Y009199D02*
X009199Y008586D01*
X008655Y008131D01*
X008131Y008655D01*
X008586Y009199D01*
X008543Y009134D02*
X007563Y009134D01*
X007571Y009134D02*
X007402Y009134D01*
X007484Y009096D02*
X007549Y009096D01*
X007541Y009096D02*
X008511Y009096D01*
X008500Y009096D02*
X008688Y009096D01*
X008726Y009058D02*
X008468Y009058D01*
X008479Y009058D02*
X007554Y009058D01*
X007608Y009021D02*
X008447Y009021D01*
X008437Y009021D02*
X008764Y009021D01*
X008802Y008983D02*
X008405Y008983D01*
X008415Y008983D02*
X007662Y008983D01*
X007716Y008945D02*
X008384Y008945D01*
X008373Y008945D02*
X008840Y008945D01*
X008878Y008907D02*
X008341Y008907D01*
X008352Y008907D02*
X007771Y008907D01*
X007825Y008869D02*
X008320Y008869D01*
X008310Y008869D02*
X008915Y008869D01*
X008953Y008831D02*
X008278Y008831D01*
X008288Y008831D02*
X007879Y008831D01*
X007933Y008793D02*
X008256Y008793D01*
X008246Y008793D02*
X008991Y008793D01*
X009029Y008755D02*
X008214Y008755D01*
X008224Y008755D02*
X007987Y008755D01*
X008041Y008717D02*
X008192Y008717D01*
X008183Y008717D02*
X009067Y008717D01*
X009105Y008679D02*
X008151Y008679D01*
X008161Y008679D02*
X008096Y008679D01*
X008145Y008641D02*
X009143Y008641D01*
X009181Y008603D02*
X008183Y008603D01*
X008221Y008566D02*
X009175Y008566D01*
X009161Y008566D02*
X009212Y008566D01*
X009193Y008592D02*
X009690Y007883D01*
X009076Y007529D01*
X008651Y008136D01*
X009193Y008592D01*
X009238Y008528D02*
X009116Y008528D01*
X009129Y008528D02*
X008259Y008528D01*
X008297Y008490D02*
X009084Y008490D01*
X009071Y008490D02*
X009265Y008490D01*
X009292Y008452D02*
X009026Y008452D01*
X009039Y008452D02*
X008334Y008452D01*
X008372Y008414D02*
X008993Y008414D01*
X008981Y008414D02*
X009318Y008414D01*
X009345Y008376D02*
X008936Y008376D01*
X008948Y008376D02*
X008410Y008376D01*
X008448Y008338D02*
X008903Y008338D01*
X008891Y008338D02*
X009371Y008338D01*
X009398Y008300D02*
X008845Y008300D01*
X008858Y008300D02*
X008486Y008300D01*
X008524Y008262D02*
X008812Y008262D01*
X008800Y008262D02*
X009424Y008262D01*
X009451Y008224D02*
X008755Y008224D01*
X008767Y008224D02*
X008562Y008224D01*
X008600Y008186D02*
X008722Y008186D01*
X008710Y008186D02*
X009477Y008186D01*
X009504Y008149D02*
X008665Y008149D01*
X008676Y008149D02*
X008638Y008149D01*
X008669Y008111D02*
X009531Y008111D01*
X009557Y008073D02*
X008695Y008073D01*
X008722Y008035D02*
X009584Y008035D01*
X009610Y007997D02*
X008748Y007997D01*
X008775Y007959D02*
X009637Y007959D01*
X009663Y007921D02*
X008801Y007921D01*
X008828Y007883D02*
X009690Y007883D01*
X009689Y007883D02*
X009674Y007883D01*
X009686Y007890D02*
X010052Y007105D01*
X009386Y006863D01*
X009072Y007535D01*
X009686Y007890D01*
X009707Y007845D02*
X009608Y007845D01*
X009625Y007845D02*
X008855Y007845D01*
X008881Y007807D02*
X009559Y007807D01*
X009543Y007807D02*
X009724Y007807D01*
X009742Y007769D02*
X009477Y007769D01*
X009493Y007769D02*
X008908Y007769D01*
X008934Y007731D02*
X009427Y007731D01*
X009411Y007731D02*
X009760Y007731D01*
X009777Y007694D02*
X009346Y007694D01*
X009361Y007694D02*
X008961Y007694D01*
X008987Y007656D02*
X009296Y007656D01*
X009280Y007656D02*
X009795Y007656D01*
X009813Y007618D02*
X009215Y007618D01*
X009230Y007618D02*
X009014Y007618D01*
X009040Y007580D02*
X009164Y007580D01*
X009149Y007580D02*
X009830Y007580D01*
X009848Y007542D02*
X009084Y007542D01*
X009098Y007542D02*
X009067Y007542D01*
X009087Y007504D02*
X009866Y007504D01*
X009883Y007466D02*
X009105Y007466D01*
X009122Y007428D02*
X009901Y007428D01*
X009919Y007390D02*
X009140Y007390D01*
X009158Y007352D02*
X009936Y007352D01*
X009954Y007314D02*
X009175Y007314D01*
X009193Y007276D02*
X009972Y007276D01*
X009989Y007239D02*
X009211Y007239D01*
X009228Y007201D02*
X010007Y007201D01*
X010025Y007163D02*
X009246Y007163D01*
X009264Y007125D02*
X010043Y007125D01*
X010049Y007113D02*
X010273Y006276D01*
X009575Y006154D01*
X009383Y006870D01*
X010049Y007113D01*
X010056Y007087D02*
X009977Y007087D01*
X010002Y007087D02*
X009281Y007087D01*
X009299Y007049D02*
X009898Y007049D01*
X009873Y007049D02*
X010066Y007049D01*
X010076Y007011D02*
X009769Y007011D01*
X009793Y007011D02*
X009317Y007011D01*
X009334Y006973D02*
X009689Y006973D01*
X009666Y006973D02*
X010086Y006973D01*
X010096Y006935D02*
X009562Y006935D01*
X009584Y006935D02*
X009352Y006935D01*
X009370Y006897D02*
X009480Y006897D01*
X009458Y006897D02*
X010107Y006897D01*
X010117Y006859D02*
X009386Y006859D01*
X009396Y006822D02*
X010127Y006822D01*
X010137Y006784D02*
X009406Y006784D01*
X009417Y006746D02*
X010147Y006746D01*
X010157Y006708D02*
X009427Y006708D01*
X009437Y006670D02*
X010168Y006670D01*
X010178Y006632D02*
X009447Y006632D01*
X009457Y006594D02*
X010188Y006594D01*
X010198Y006556D02*
X009467Y006556D01*
X009477Y006518D02*
X010208Y006518D01*
X010218Y006480D02*
X009488Y006480D01*
X009498Y006442D02*
X010229Y006442D01*
X010239Y006404D02*
X009508Y006404D01*
X009518Y006367D02*
X010249Y006367D01*
X010259Y006329D02*
X009528Y006329D01*
X009538Y006291D02*
X010269Y006291D01*
X010271Y006284D02*
X010347Y005421D01*
X009638Y005422D01*
X009574Y006161D01*
X010271Y006284D01*
X010274Y006253D02*
X010093Y006253D01*
X010140Y006253D02*
X009549Y006253D01*
X009559Y006215D02*
X009924Y006215D01*
X009879Y006215D02*
X010278Y006215D01*
X010281Y006177D02*
X009665Y006177D01*
X009707Y006177D02*
X009569Y006177D01*
X009576Y006139D02*
X010284Y006139D01*
X010288Y006101D02*
X009579Y006101D01*
X009582Y006063D02*
X010291Y006063D01*
X010294Y006025D02*
X009586Y006025D01*
X009589Y005987D02*
X010297Y005987D01*
X010301Y005950D02*
X009592Y005950D01*
X009596Y005912D02*
X010304Y005912D01*
X010307Y005874D02*
X009599Y005874D01*
X009602Y005836D02*
X010311Y005836D01*
X010314Y005798D02*
X009606Y005798D01*
X009609Y005760D02*
X010317Y005760D01*
X010321Y005722D02*
X009612Y005722D01*
X009616Y005684D02*
X010324Y005684D01*
X010327Y005646D02*
X009619Y005646D01*
X009622Y005608D02*
X010331Y005608D01*
X010334Y005570D02*
X009626Y005570D01*
X009629Y005532D02*
X010337Y005532D01*
X010341Y005495D02*
X009632Y005495D01*
X009635Y005457D02*
X010344Y005457D01*
X010347Y005430D02*
X010271Y004567D01*
X009574Y004691D01*
X009638Y005429D01*
X010347Y005430D01*
X010346Y005419D02*
X009637Y005419D01*
X009634Y005381D02*
X010343Y005381D01*
X010339Y005343D02*
X009631Y005343D01*
X009628Y005305D02*
X010336Y005305D01*
X010333Y005267D02*
X009624Y005267D01*
X009621Y005229D02*
X010329Y005229D01*
X010326Y005191D02*
X009618Y005191D01*
X009614Y005153D02*
X010323Y005153D01*
X010320Y005115D02*
X009611Y005115D01*
X009608Y005078D02*
X010316Y005078D01*
X010313Y005040D02*
X009604Y005040D01*
X009601Y005002D02*
X010310Y005002D01*
X010306Y004964D02*
X009598Y004964D01*
X009594Y004926D02*
X010303Y004926D01*
X010300Y004888D02*
X009591Y004888D01*
X009588Y004850D02*
X010296Y004850D01*
X010293Y004812D02*
X009584Y004812D01*
X009581Y004774D02*
X010290Y004774D01*
X010286Y004736D02*
X009578Y004736D01*
X009574Y004698D02*
X010283Y004698D01*
X010280Y004660D02*
X009745Y004660D01*
X009788Y004660D02*
X009565Y004660D01*
X009555Y004623D02*
X010004Y004623D01*
X009959Y004623D02*
X010276Y004623D01*
X010273Y004585D02*
X010173Y004585D01*
X010221Y004585D02*
X009545Y004585D01*
X009535Y004547D02*
X010265Y004547D01*
X010273Y004575D02*
X010049Y003738D01*
X009383Y003982D01*
X009575Y004698D01*
X010273Y004575D01*
X010255Y004509D02*
X009524Y004509D01*
X009514Y004471D02*
X010245Y004471D01*
X010235Y004433D02*
X009504Y004433D01*
X009494Y004395D02*
X010225Y004395D01*
X010215Y004357D02*
X009484Y004357D01*
X009474Y004319D02*
X010204Y004319D01*
X010194Y004281D02*
X009464Y004281D01*
X009453Y004243D02*
X010184Y004243D01*
X010174Y004206D02*
X009443Y004206D01*
X009433Y004168D02*
X010164Y004168D01*
X010154Y004130D02*
X009423Y004130D01*
X009413Y004092D02*
X010143Y004092D01*
X010133Y004054D02*
X009403Y004054D01*
X009392Y004016D02*
X010123Y004016D01*
X010113Y003978D02*
X009393Y003978D01*
X009381Y003978D02*
X009414Y003978D01*
X009386Y003988D02*
X010052Y003747D01*
X009686Y002962D01*
X009072Y003316D01*
X009386Y003988D01*
X009363Y003940D02*
X009519Y003940D01*
X009497Y003940D02*
X010103Y003940D01*
X010093Y003902D02*
X009601Y003902D01*
X009623Y003902D02*
X009345Y003902D01*
X009328Y003864D02*
X009728Y003864D01*
X009704Y003864D02*
X010082Y003864D01*
X010072Y003826D02*
X009808Y003826D01*
X009832Y003826D02*
X009310Y003826D01*
X009292Y003788D02*
X009937Y003788D01*
X009912Y003788D02*
X010062Y003788D01*
X010052Y003751D02*
X010016Y003751D01*
X010041Y003751D02*
X009275Y003751D01*
X009257Y003713D02*
X010036Y003713D01*
X010018Y003675D02*
X009239Y003675D01*
X009222Y003637D02*
X010001Y003637D01*
X009983Y003599D02*
X009204Y003599D01*
X009186Y003561D02*
X009965Y003561D01*
X009948Y003523D02*
X009169Y003523D01*
X009151Y003485D02*
X009930Y003485D01*
X009912Y003447D02*
X009133Y003447D01*
X009116Y003409D02*
X009894Y003409D01*
X009877Y003371D02*
X009098Y003371D01*
X009080Y003334D02*
X009859Y003334D01*
X009841Y003296D02*
X009108Y003296D01*
X009123Y003296D02*
X009057Y003296D01*
X009076Y003323D02*
X009690Y002969D01*
X009193Y002259D01*
X008651Y002715D01*
X009076Y003323D01*
X009030Y003258D02*
X009189Y003258D01*
X009174Y003258D02*
X009824Y003258D01*
X009806Y003220D02*
X009239Y003220D01*
X009254Y003220D02*
X009004Y003220D01*
X008977Y003182D02*
X009320Y003182D01*
X009305Y003182D02*
X009788Y003182D01*
X009771Y003144D02*
X009370Y003144D01*
X009386Y003144D02*
X008951Y003144D01*
X008924Y003106D02*
X009452Y003106D01*
X009436Y003106D02*
X009753Y003106D01*
X009735Y003068D02*
X009502Y003068D01*
X009518Y003068D02*
X008898Y003068D01*
X008871Y003030D02*
X009583Y003030D01*
X009567Y003030D02*
X009718Y003030D01*
X009700Y002992D02*
X009633Y002992D01*
X009649Y002992D02*
X008845Y002992D01*
X008818Y002954D02*
X009680Y002954D01*
X009653Y002916D02*
X008791Y002916D01*
X008765Y002879D02*
X009627Y002879D01*
X009600Y002841D02*
X008738Y002841D01*
X008712Y002803D02*
X009574Y002803D01*
X009547Y002765D02*
X008685Y002765D01*
X008659Y002727D02*
X009521Y002727D01*
X009494Y002689D02*
X008682Y002689D01*
X008693Y002689D02*
X008624Y002689D01*
X008655Y002721D02*
X009199Y002266D01*
X008586Y001653D01*
X008131Y002196D01*
X009129Y002196D01*
X009167Y002234D02*
X008169Y002234D01*
X008136Y002201D02*
X008592Y001659D01*
X007883Y001162D01*
X007529Y001776D01*
X008136Y002201D01*
X008141Y002196D02*
X008129Y002196D01*
X008131Y002196D02*
X008655Y002721D01*
X008586Y002651D02*
X008739Y002651D01*
X008727Y002651D02*
X009468Y002651D01*
X009441Y002613D02*
X008772Y002613D01*
X008784Y002613D02*
X008548Y002613D01*
X008510Y002575D02*
X008829Y002575D01*
X008817Y002575D02*
X009414Y002575D01*
X009388Y002537D02*
X008862Y002537D01*
X008874Y002537D02*
X008472Y002537D01*
X008434Y002499D02*
X008920Y002499D01*
X008907Y002499D02*
X009361Y002499D01*
X009335Y002461D02*
X008953Y002461D01*
X008965Y002461D02*
X008396Y002461D01*
X008358Y002424D02*
X009010Y002424D01*
X008998Y002424D02*
X009308Y002424D01*
X009282Y002386D02*
X009043Y002386D01*
X009056Y002386D02*
X008320Y002386D01*
X008282Y002348D02*
X009101Y002348D01*
X009088Y002348D02*
X009255Y002348D01*
X009229Y002310D02*
X009133Y002310D01*
X009146Y002310D02*
X008244Y002310D01*
X008207Y002272D02*
X009192Y002272D01*
X009202Y002272D02*
X009178Y002272D01*
X009091Y002158D02*
X008163Y002158D01*
X008172Y002158D02*
X008075Y002158D01*
X008021Y002120D02*
X008204Y002120D01*
X008195Y002120D02*
X009053Y002120D01*
X009015Y002082D02*
X008226Y002082D01*
X008236Y002082D02*
X007967Y002082D01*
X007913Y002044D02*
X008268Y002044D01*
X008258Y002044D02*
X008977Y002044D01*
X008939Y002007D02*
X008290Y002007D01*
X008300Y002007D02*
X007859Y002007D01*
X007804Y001969D02*
X008332Y001969D01*
X008322Y001969D02*
X008901Y001969D01*
X008863Y001931D02*
X008353Y001931D01*
X008364Y001931D02*
X007750Y001931D01*
X007696Y001893D02*
X008395Y001893D01*
X008385Y001893D02*
X008825Y001893D01*
X008788Y001855D02*
X008417Y001855D01*
X008427Y001855D02*
X007642Y001855D01*
X007588Y001817D02*
X008459Y001817D01*
X008448Y001817D02*
X008750Y001817D01*
X008712Y001779D02*
X008480Y001779D01*
X008491Y001779D02*
X007534Y001779D01*
X007535Y001779D02*
X007535Y001779D01*
X007890Y001166D01*
X007105Y000800D01*
X006863Y001466D01*
X007535Y001779D01*
X007549Y001741D02*
X008523Y001741D01*
X008512Y001741D02*
X008674Y001741D01*
X008636Y001703D02*
X008544Y001703D01*
X008555Y001703D02*
X007571Y001703D01*
X007579Y001703D02*
X007372Y001703D01*
X007291Y001665D02*
X007601Y001665D01*
X007593Y001665D02*
X008587Y001665D01*
X008598Y001665D02*
X008575Y001665D01*
X008548Y001627D02*
X007615Y001627D01*
X007623Y001627D02*
X007209Y001627D01*
X007128Y001589D02*
X007645Y001589D01*
X007636Y001589D02*
X008494Y001589D01*
X008440Y001552D02*
X007658Y001552D01*
X007667Y001552D02*
X007047Y001552D01*
X006965Y001514D02*
X007689Y001514D01*
X007680Y001514D02*
X008386Y001514D01*
X008331Y001476D02*
X007702Y001476D01*
X007711Y001476D02*
X006884Y001476D01*
X006870Y001468D02*
X007113Y000803D01*
X006276Y000579D01*
X006154Y001277D01*
X006870Y001468D01*
X006873Y001438D02*
X007733Y001438D01*
X007724Y001438D02*
X008277Y001438D01*
X008223Y001400D02*
X007746Y001400D01*
X007755Y001400D02*
X006887Y001400D01*
X006895Y001400D02*
X006614Y001400D01*
X006756Y001438D02*
X006881Y001438D01*
X006901Y001362D02*
X007777Y001362D01*
X007767Y001362D02*
X008169Y001362D01*
X008115Y001324D02*
X007789Y001324D01*
X007799Y001324D02*
X006915Y001324D01*
X006923Y001324D02*
X006331Y001324D01*
X006189Y001286D02*
X006937Y001286D01*
X006929Y001286D02*
X007820Y001286D01*
X007811Y001286D02*
X008061Y001286D01*
X008007Y001248D02*
X007833Y001248D01*
X007842Y001248D02*
X006942Y001248D01*
X006950Y001248D02*
X006159Y001248D01*
X006166Y001248D02*
X005823Y001248D01*
X005851Y001251D02*
X005978Y001251D01*
X005990Y001263D01*
X006161Y001278D01*
X006284Y000580D01*
X005421Y000505D01*
X005422Y001213D01*
X005851Y001251D01*
X006165Y001210D02*
X006964Y001210D01*
X006956Y001210D02*
X007864Y001210D01*
X007855Y001210D02*
X007952Y001210D01*
X007898Y001172D02*
X007877Y001172D01*
X007886Y001172D02*
X006970Y001172D01*
X006978Y001172D02*
X006172Y001172D01*
X006180Y001172D02*
X005422Y001172D01*
X005429Y001172D02*
X004672Y001172D01*
X004680Y001172D02*
X003874Y001172D01*
X003882Y001172D02*
X002965Y001172D01*
X002962Y001166D02*
X003316Y001779D01*
X003317Y001779D01*
X003316Y001779D02*
X003988Y001466D01*
X003747Y000800D01*
X002962Y001166D01*
X002953Y001172D02*
X002975Y001172D01*
X002987Y001210D02*
X003896Y001210D01*
X003887Y001210D02*
X004686Y001210D01*
X004679Y001210D02*
X005429Y001210D01*
X005429Y001213D02*
X005000Y001251D01*
X004700Y001251D01*
X004688Y001263D01*
X004567Y000580D01*
X005430Y000505D01*
X005429Y001213D01*
X005422Y001210D02*
X006173Y001210D01*
X006179Y001135D02*
X006992Y001135D01*
X006984Y001135D02*
X007823Y001135D01*
X007741Y001097D02*
X006997Y001097D01*
X007006Y001097D02*
X006185Y001097D01*
X006193Y001097D02*
X005422Y001097D01*
X005429Y001097D02*
X004659Y001097D01*
X004666Y001097D02*
X003846Y001097D01*
X003854Y001097D02*
X003110Y001097D01*
X003029Y001135D02*
X003868Y001135D01*
X003860Y001135D02*
X004673Y001135D01*
X004665Y001135D02*
X005429Y001135D01*
X005422Y001135D02*
X006186Y001135D01*
X006192Y001059D02*
X007020Y001059D01*
X007011Y001059D02*
X007660Y001059D01*
X007579Y001021D02*
X007025Y001021D01*
X007034Y001021D02*
X006199Y001021D01*
X006206Y001021D02*
X005422Y001021D01*
X005430Y001021D02*
X004645Y001021D01*
X004653Y001021D02*
X003818Y001021D01*
X003827Y001021D02*
X003273Y001021D01*
X003192Y001059D02*
X003841Y001059D01*
X003832Y001059D02*
X004660Y001059D01*
X004652Y001059D02*
X005430Y001059D01*
X005422Y001059D02*
X006200Y001059D01*
X006205Y000983D02*
X007047Y000983D01*
X007039Y000983D02*
X007497Y000983D01*
X007416Y000945D02*
X007052Y000945D01*
X007061Y000945D02*
X006212Y000945D01*
X006220Y000945D02*
X005422Y000945D01*
X005430Y000945D02*
X004632Y000945D01*
X004640Y000945D02*
X003790Y000945D01*
X003799Y000945D02*
X003436Y000945D01*
X003517Y000907D02*
X003786Y000907D01*
X003776Y000907D02*
X004633Y000907D01*
X004625Y000907D02*
X005430Y000907D01*
X005422Y000907D02*
X006227Y000907D01*
X006219Y000907D02*
X007075Y000907D01*
X007066Y000907D02*
X007335Y000907D01*
X007254Y000869D02*
X007080Y000869D01*
X007089Y000869D02*
X006225Y000869D01*
X006233Y000869D02*
X005422Y000869D01*
X005430Y000869D02*
X004618Y000869D01*
X004626Y000869D02*
X003763Y000869D01*
X003772Y000869D02*
X003598Y000869D01*
X003679Y000831D02*
X003758Y000831D01*
X003749Y000831D02*
X004620Y000831D01*
X004612Y000831D02*
X005430Y000831D01*
X005422Y000831D02*
X006240Y000831D01*
X006232Y000831D02*
X007103Y000831D01*
X007094Y000831D02*
X007172Y000831D01*
X007077Y000793D02*
X006239Y000793D01*
X006247Y000793D02*
X005422Y000793D01*
X005430Y000793D02*
X004605Y000793D01*
X004613Y000793D02*
X003775Y000793D01*
X003738Y000803D02*
X003982Y001468D01*
X004666Y001285D01*
X004694Y001257D01*
X004575Y000579D01*
X003738Y000803D01*
X003916Y000755D02*
X004606Y000755D01*
X004598Y000755D02*
X005430Y000755D01*
X005422Y000755D02*
X006253Y000755D01*
X006245Y000755D02*
X006936Y000755D01*
X006794Y000717D02*
X006252Y000717D01*
X006260Y000717D02*
X005422Y000717D01*
X005430Y000717D02*
X004591Y000717D01*
X004600Y000717D02*
X004057Y000717D01*
X004199Y000680D02*
X004593Y000680D01*
X004585Y000680D02*
X005430Y000680D01*
X005422Y000680D02*
X006267Y000680D01*
X006259Y000680D02*
X006653Y000680D01*
X006511Y000642D02*
X006265Y000642D01*
X006274Y000642D02*
X005422Y000642D01*
X005430Y000642D02*
X004578Y000642D01*
X004586Y000642D02*
X004340Y000642D01*
X004482Y000604D02*
X004580Y000604D01*
X004571Y000604D02*
X005430Y000604D01*
X005422Y000604D02*
X006280Y000604D01*
X006272Y000604D02*
X006370Y000604D01*
X006121Y000566D02*
X005422Y000566D01*
X005430Y000566D02*
X004731Y000566D01*
X004646Y000983D02*
X003804Y000983D01*
X003813Y000983D02*
X003354Y000983D01*
X003041Y001286D02*
X002791Y001286D01*
X002845Y001248D02*
X003019Y001248D01*
X003009Y001248D02*
X003909Y001248D01*
X003901Y001248D02*
X004693Y001248D01*
X004686Y001248D02*
X005028Y001248D01*
X004662Y001286D02*
X003915Y001286D01*
X003923Y001286D02*
X003031Y001286D01*
X003053Y001324D02*
X003937Y001324D01*
X003929Y001324D02*
X004520Y001324D01*
X004379Y001362D02*
X003943Y001362D01*
X003951Y001362D02*
X003075Y001362D01*
X003084Y001362D02*
X002683Y001362D01*
X002737Y001324D02*
X003062Y001324D01*
X003097Y001400D02*
X003964Y001400D01*
X003957Y001400D02*
X004237Y001400D01*
X004096Y001438D02*
X003971Y001438D01*
X003978Y001438D02*
X003119Y001438D01*
X003128Y001438D02*
X002574Y001438D01*
X002520Y001476D02*
X003150Y001476D01*
X003141Y001476D02*
X003967Y001476D01*
X003886Y001514D02*
X003163Y001514D01*
X003172Y001514D02*
X002466Y001514D01*
X002412Y001552D02*
X003193Y001552D01*
X003185Y001552D02*
X003805Y001552D01*
X003724Y001589D02*
X003207Y001589D01*
X003215Y001589D02*
X002358Y001589D01*
X002304Y001627D02*
X003237Y001627D01*
X003228Y001627D02*
X003642Y001627D01*
X003561Y001665D02*
X003250Y001665D01*
X003259Y001665D02*
X002265Y001665D01*
X002254Y001665D02*
X002276Y001665D01*
X002297Y001703D02*
X003281Y001703D01*
X003272Y001703D02*
X003480Y001703D01*
X003398Y001741D02*
X003294Y001741D01*
X003303Y001741D02*
X002329Y001741D01*
X002340Y001741D02*
X002178Y001741D01*
X002216Y001703D02*
X002308Y001703D01*
X002361Y001779D02*
X003318Y001779D01*
X003264Y001817D02*
X002392Y001817D01*
X002403Y001817D02*
X002102Y001817D01*
X002064Y001855D02*
X002435Y001855D01*
X002424Y001855D02*
X003210Y001855D01*
X003156Y001893D02*
X002456Y001893D01*
X002467Y001893D02*
X002026Y001893D01*
X001988Y001931D02*
X002498Y001931D01*
X002488Y001931D02*
X003101Y001931D01*
X003047Y001969D02*
X002520Y001969D01*
X002371Y001779D02*
X002140Y001779D01*
X002629Y001400D02*
X003106Y001400D01*
X002997Y001210D02*
X002899Y001210D01*
X004639Y000983D02*
X005430Y000983D01*
X005422Y000983D02*
X006213Y000983D01*
X006473Y001362D02*
X006909Y001362D01*
X007453Y001741D02*
X007557Y001741D01*
X005688Y000528D02*
X005421Y000528D01*
X005430Y000528D02*
X005164Y000528D01*
X002252Y008186D02*
X002130Y008186D01*
X002596Y008793D02*
X002919Y008793D01*
X003259Y009172D02*
X003531Y009172D01*
X003948Y009475D02*
X004326Y009475D01*
X008532Y009134D02*
X008650Y009134D01*
D15*
X008308Y008908D02*
X009363Y007788D01*
X009573Y006162D02*
X009558Y006158D01*
X006607Y003851D02*
X005820Y005426D01*
X005426Y005426D01*
X004508Y005908D01*
X004558Y006258D02*
X005426Y005426D01*
X004008Y006408D01*
X004048Y006410D02*
X004048Y005908D01*
X002257Y005908D01*
X002257Y005938D01*
X004048Y006410D02*
X005032Y005426D01*
X005426Y005426D01*
X005208Y005458D01*
X005208Y009158D01*
X005229Y009166D01*
D16*
X005229Y009166D03*
X004048Y006410D03*
X002257Y005938D03*
X006607Y003851D03*
X008728Y002339D03*
X009988Y004938D03*
X009363Y007788D03*
M02*
