G75*
G70*
%OFA0B0*%
%FSLAX24Y24*%
%IPPOS*%
%LPD*%
%AMOC8*
5,1,8,0,0,1.08239X$1,22.5*
%
%ADD10C,0.0004*%
D10*
X000111Y005426D02*
X000117Y005687D01*
X000137Y005947D01*
X000169Y006206D01*
X000213Y006463D01*
X000270Y006717D01*
X000340Y006969D01*
X000422Y007217D01*
X000516Y007460D01*
X000621Y007698D01*
X000739Y007931D01*
X000867Y008158D01*
X001007Y008379D01*
X001157Y008592D01*
X001317Y008798D01*
X001488Y008995D01*
X001668Y009184D01*
X001857Y009364D01*
X002054Y009535D01*
X002260Y009695D01*
X002473Y009845D01*
X002694Y009985D01*
X002921Y010113D01*
X003154Y010231D01*
X003392Y010336D01*
X003635Y010430D01*
X003883Y010512D01*
X004135Y010582D01*
X004389Y010639D01*
X004646Y010683D01*
X004905Y010715D01*
X005165Y010735D01*
X005426Y010741D01*
X005687Y010735D01*
X005947Y010715D01*
X006206Y010683D01*
X006463Y010639D01*
X006717Y010582D01*
X006969Y010512D01*
X007217Y010430D01*
X007460Y010336D01*
X007698Y010231D01*
X007931Y010113D01*
X008158Y009985D01*
X008379Y009845D01*
X008592Y009695D01*
X008798Y009535D01*
X008995Y009364D01*
X009184Y009184D01*
X009364Y008995D01*
X009535Y008798D01*
X009695Y008592D01*
X009845Y008379D01*
X009985Y008158D01*
X010113Y007931D01*
X010231Y007698D01*
X010336Y007460D01*
X010430Y007217D01*
X010512Y006969D01*
X010582Y006717D01*
X010639Y006463D01*
X010683Y006206D01*
X010715Y005947D01*
X010735Y005687D01*
X010741Y005426D01*
X010735Y005165D01*
X010715Y004905D01*
X010683Y004646D01*
X010639Y004389D01*
X010582Y004135D01*
X010512Y003883D01*
X010430Y003635D01*
X010336Y003392D01*
X010231Y003154D01*
X010113Y002921D01*
X009985Y002694D01*
X009845Y002473D01*
X009695Y002260D01*
X009535Y002054D01*
X009364Y001857D01*
X009184Y001668D01*
X008995Y001488D01*
X008798Y001317D01*
X008592Y001157D01*
X008379Y001007D01*
X008158Y000867D01*
X007931Y000739D01*
X007698Y000621D01*
X007460Y000516D01*
X007217Y000422D01*
X006969Y000340D01*
X006717Y000270D01*
X006463Y000213D01*
X006206Y000169D01*
X005947Y000137D01*
X005687Y000117D01*
X005426Y000111D01*
X005165Y000117D01*
X004905Y000137D01*
X004646Y000169D01*
X004389Y000213D01*
X004135Y000270D01*
X003883Y000340D01*
X003635Y000422D01*
X003392Y000516D01*
X003154Y000621D01*
X002921Y000739D01*
X002694Y000867D01*
X002473Y001007D01*
X002260Y001157D01*
X002054Y001317D01*
X001857Y001488D01*
X001668Y001668D01*
X001488Y001857D01*
X001317Y002054D01*
X001157Y002260D01*
X001007Y002473D01*
X000867Y002694D01*
X000739Y002921D01*
X000621Y003154D01*
X000516Y003392D01*
X000422Y003635D01*
X000340Y003883D01*
X000270Y004135D01*
X000213Y004389D01*
X000169Y004646D01*
X000137Y004905D01*
X000117Y005165D01*
X000111Y005426D01*
M02*
