G75*
G70*
%OFA0B0*%
%FSLAX24Y24*%
%IPPOS*%
%LPD*%
%AMOC8*
5,1,8,0,0,1.08239X$1,22.5*
%
%ADD10C,0.0004*%
%ADD11R,0.0300X0.0840*%
%ADD12R,0.0631X0.0434*%
%ADD13R,0.0434X0.0631*%
%ADD14R,0.0631X0.0552*%
%ADD15C,0.0064*%
%ADD16C,0.0180*%
%ADD17OC8,0.0317*%
D10*
X000111Y005426D02*
X000117Y005687D01*
X000137Y005947D01*
X000169Y006206D01*
X000213Y006463D01*
X000270Y006717D01*
X000340Y006969D01*
X000422Y007217D01*
X000516Y007460D01*
X000621Y007698D01*
X000739Y007931D01*
X000867Y008158D01*
X001007Y008379D01*
X001157Y008592D01*
X001317Y008798D01*
X001488Y008995D01*
X001668Y009184D01*
X001857Y009364D01*
X002054Y009535D01*
X002260Y009695D01*
X002473Y009845D01*
X002694Y009985D01*
X002921Y010113D01*
X003154Y010231D01*
X003392Y010336D01*
X003635Y010430D01*
X003883Y010512D01*
X004135Y010582D01*
X004389Y010639D01*
X004646Y010683D01*
X004905Y010715D01*
X005165Y010735D01*
X005426Y010741D01*
X005687Y010735D01*
X005947Y010715D01*
X006206Y010683D01*
X006463Y010639D01*
X006717Y010582D01*
X006969Y010512D01*
X007217Y010430D01*
X007460Y010336D01*
X007698Y010231D01*
X007931Y010113D01*
X008158Y009985D01*
X008379Y009845D01*
X008592Y009695D01*
X008798Y009535D01*
X008995Y009364D01*
X009184Y009184D01*
X009364Y008995D01*
X009535Y008798D01*
X009695Y008592D01*
X009845Y008379D01*
X009985Y008158D01*
X010113Y007931D01*
X010231Y007698D01*
X010336Y007460D01*
X010430Y007217D01*
X010512Y006969D01*
X010582Y006717D01*
X010639Y006463D01*
X010683Y006206D01*
X010715Y005947D01*
X010735Y005687D01*
X010741Y005426D01*
X010735Y005165D01*
X010715Y004905D01*
X010683Y004646D01*
X010639Y004389D01*
X010582Y004135D01*
X010512Y003883D01*
X010430Y003635D01*
X010336Y003392D01*
X010231Y003154D01*
X010113Y002921D01*
X009985Y002694D01*
X009845Y002473D01*
X009695Y002260D01*
X009535Y002054D01*
X009364Y001857D01*
X009184Y001668D01*
X008995Y001488D01*
X008798Y001317D01*
X008592Y001157D01*
X008379Y001007D01*
X008158Y000867D01*
X007931Y000739D01*
X007698Y000621D01*
X007460Y000516D01*
X007217Y000422D01*
X006969Y000340D01*
X006717Y000270D01*
X006463Y000213D01*
X006206Y000169D01*
X005947Y000137D01*
X005687Y000117D01*
X005426Y000111D01*
X005165Y000117D01*
X004905Y000137D01*
X004646Y000169D01*
X004389Y000213D01*
X004135Y000270D01*
X003883Y000340D01*
X003635Y000422D01*
X003392Y000516D01*
X003154Y000621D01*
X002921Y000739D01*
X002694Y000867D01*
X002473Y001007D01*
X002260Y001157D01*
X002054Y001317D01*
X001857Y001488D01*
X001668Y001668D01*
X001488Y001857D01*
X001317Y002054D01*
X001157Y002260D01*
X001007Y002473D01*
X000867Y002694D01*
X000739Y002921D01*
X000621Y003154D01*
X000516Y003392D01*
X000422Y003635D01*
X000340Y003883D01*
X000270Y004135D01*
X000213Y004389D01*
X000169Y004646D01*
X000137Y004905D01*
X000117Y005165D01*
X000111Y005426D01*
D11*
X004676Y006636D03*
X005176Y006636D03*
X005676Y006636D03*
X006176Y006636D03*
X006176Y004216D03*
X005676Y004216D03*
X005176Y004216D03*
X004676Y004216D03*
D12*
X007024Y004442D03*
X007764Y004442D03*
X007764Y005426D03*
X007024Y005426D03*
X007024Y006410D03*
X007764Y006410D03*
X006583Y009166D03*
X005843Y009166D03*
X004615Y009166D03*
X003875Y009166D03*
D13*
X003457Y007843D03*
X003457Y007103D03*
X003457Y005796D03*
X003457Y005056D03*
X003457Y003749D03*
X003457Y003009D03*
X001686Y007103D03*
X001686Y007843D03*
D14*
X002473Y003005D03*
X002473Y003753D03*
X002571Y007099D03*
X002571Y007847D03*
D15*
X002477Y006198D02*
X000501Y006198D01*
X002477Y006198D02*
X002477Y005622D01*
X000501Y005622D01*
X000501Y006198D01*
X000501Y005685D02*
X002477Y005685D01*
X002477Y005748D02*
X000501Y005748D01*
X000501Y005811D02*
X002477Y005811D01*
X002477Y005874D02*
X000501Y005874D01*
X000501Y005937D02*
X002477Y005937D01*
X002477Y006000D02*
X000501Y006000D01*
X000501Y006063D02*
X002477Y006063D01*
X002477Y006126D02*
X000501Y006126D01*
X000501Y006189D02*
X002477Y006189D01*
X002477Y005230D02*
X000501Y005230D01*
X002477Y005230D02*
X002477Y004654D01*
X000501Y004654D01*
X000501Y005230D01*
X000501Y004717D02*
X002477Y004717D01*
X002477Y004780D02*
X000501Y004780D01*
X000501Y004843D02*
X002477Y004843D01*
X002477Y004906D02*
X000501Y004906D01*
X000501Y004969D02*
X002477Y004969D01*
X002477Y005032D02*
X000501Y005032D01*
X000501Y005095D02*
X002477Y005095D01*
X002477Y005158D02*
X000501Y005158D01*
X000501Y005221D02*
X002477Y005221D01*
X007323Y003107D02*
X008835Y001838D01*
X007323Y003107D02*
X007693Y003548D01*
X009205Y002279D01*
X008835Y001838D01*
X008888Y001901D02*
X008760Y001901D01*
X008685Y001964D02*
X008941Y001964D01*
X008994Y002027D02*
X008610Y002027D01*
X008535Y002090D02*
X009046Y002090D01*
X009099Y002153D02*
X008460Y002153D01*
X008385Y002216D02*
X009152Y002216D01*
X009205Y002279D02*
X008310Y002279D01*
X008234Y002342D02*
X009130Y002342D01*
X009055Y002405D02*
X008159Y002405D01*
X008084Y002468D02*
X008980Y002468D01*
X008905Y002531D02*
X008009Y002531D01*
X007934Y002594D02*
X008830Y002594D01*
X008755Y002657D02*
X007859Y002657D01*
X007784Y002720D02*
X008680Y002720D01*
X008604Y002783D02*
X007709Y002783D01*
X007634Y002846D02*
X008529Y002846D01*
X008454Y002909D02*
X007559Y002909D01*
X007484Y002972D02*
X008379Y002972D01*
X008304Y003035D02*
X007409Y003035D01*
X007334Y003098D02*
X008229Y003098D01*
X008154Y003161D02*
X007368Y003161D01*
X007421Y003224D02*
X008079Y003224D01*
X008004Y003287D02*
X007474Y003287D01*
X007527Y003350D02*
X007929Y003350D01*
X007854Y003413D02*
X007580Y003413D01*
X007633Y003476D02*
X007779Y003476D01*
X007704Y003539D02*
X007685Y003539D01*
X007946Y003849D02*
X009458Y002580D01*
X007946Y003849D02*
X008316Y004290D01*
X009828Y003021D01*
X009458Y002580D01*
X009511Y002643D02*
X009383Y002643D01*
X009308Y002706D02*
X009564Y002706D01*
X009617Y002769D02*
X009233Y002769D01*
X009158Y002832D02*
X009669Y002832D01*
X009722Y002895D02*
X009083Y002895D01*
X009008Y002958D02*
X009775Y002958D01*
X009828Y003021D02*
X008933Y003021D01*
X008857Y003084D02*
X009753Y003084D01*
X009678Y003147D02*
X008782Y003147D01*
X008707Y003210D02*
X009603Y003210D01*
X009528Y003273D02*
X008632Y003273D01*
X008557Y003336D02*
X009453Y003336D01*
X009378Y003399D02*
X008482Y003399D01*
X008407Y003462D02*
X009303Y003462D01*
X009227Y003525D02*
X008332Y003525D01*
X008257Y003588D02*
X009152Y003588D01*
X009077Y003651D02*
X008182Y003651D01*
X008107Y003714D02*
X009002Y003714D01*
X008927Y003777D02*
X008032Y003777D01*
X007957Y003840D02*
X008852Y003840D01*
X008777Y003903D02*
X007991Y003903D01*
X008044Y003966D02*
X008702Y003966D01*
X008627Y004029D02*
X008097Y004029D01*
X008150Y004092D02*
X008552Y004092D01*
X008477Y004155D02*
X008203Y004155D01*
X008256Y004218D02*
X008402Y004218D01*
X008327Y004281D02*
X008308Y004281D01*
X008375Y004654D02*
X010351Y004654D01*
X008375Y004654D02*
X008375Y005230D01*
X010351Y005230D01*
X010351Y004654D01*
X010351Y004717D02*
X008375Y004717D01*
X008375Y004780D02*
X010351Y004780D01*
X010351Y004843D02*
X008375Y004843D01*
X008375Y004906D02*
X010351Y004906D01*
X010351Y004969D02*
X008375Y004969D01*
X008375Y005032D02*
X010351Y005032D01*
X010351Y005095D02*
X008375Y005095D01*
X008375Y005158D02*
X010351Y005158D01*
X010351Y005221D02*
X008375Y005221D01*
X008375Y005622D02*
X010351Y005622D01*
X008375Y005622D02*
X008375Y006198D01*
X010351Y006198D01*
X010351Y005622D01*
X010351Y005685D02*
X008375Y005685D01*
X008375Y005748D02*
X010351Y005748D01*
X010351Y005811D02*
X008375Y005811D01*
X008375Y005874D02*
X010351Y005874D01*
X010351Y005937D02*
X008375Y005937D01*
X008375Y006000D02*
X010351Y006000D01*
X010351Y006063D02*
X008375Y006063D01*
X008375Y006126D02*
X010351Y006126D01*
X010351Y006189D02*
X008375Y006189D01*
X008316Y006562D02*
X009828Y007831D01*
X008316Y006562D02*
X007946Y007003D01*
X009458Y008272D01*
X009828Y007831D01*
X008391Y006625D02*
X008263Y006625D01*
X008210Y006688D02*
X008466Y006688D01*
X008541Y006751D02*
X008157Y006751D01*
X008105Y006814D02*
X008616Y006814D01*
X008691Y006877D02*
X008052Y006877D01*
X007999Y006940D02*
X008766Y006940D01*
X008841Y007003D02*
X007946Y007003D01*
X008021Y007066D02*
X008917Y007066D01*
X008992Y007129D02*
X008096Y007129D01*
X008171Y007192D02*
X009067Y007192D01*
X009142Y007255D02*
X008246Y007255D01*
X008321Y007318D02*
X009217Y007318D01*
X009292Y007381D02*
X008396Y007381D01*
X008471Y007444D02*
X009367Y007444D01*
X009442Y007507D02*
X008547Y007507D01*
X008622Y007570D02*
X009517Y007570D01*
X009592Y007633D02*
X008697Y007633D01*
X008772Y007696D02*
X009667Y007696D01*
X009742Y007759D02*
X008847Y007759D01*
X008922Y007822D02*
X009817Y007822D01*
X009783Y007885D02*
X008997Y007885D01*
X009072Y007948D02*
X009730Y007948D01*
X009677Y008011D02*
X009147Y008011D01*
X009222Y008074D02*
X009624Y008074D01*
X009571Y008137D02*
X009297Y008137D01*
X009372Y008200D02*
X009518Y008200D01*
X009466Y008263D02*
X009447Y008263D01*
X009205Y008573D02*
X007693Y007304D01*
X007323Y007745D01*
X008835Y009014D01*
X009205Y008573D01*
X007768Y007367D02*
X007640Y007367D01*
X007587Y007430D02*
X007843Y007430D01*
X007918Y007493D02*
X007534Y007493D01*
X007482Y007556D02*
X007993Y007556D01*
X008068Y007619D02*
X007429Y007619D01*
X007376Y007682D02*
X008143Y007682D01*
X008218Y007745D02*
X007323Y007745D01*
X007398Y007808D02*
X008294Y007808D01*
X008369Y007871D02*
X007473Y007871D01*
X007548Y007934D02*
X008444Y007934D01*
X008519Y007997D02*
X007623Y007997D01*
X007698Y008060D02*
X008594Y008060D01*
X008669Y008123D02*
X007773Y008123D01*
X007848Y008186D02*
X008744Y008186D01*
X008819Y008249D02*
X007924Y008249D01*
X007999Y008312D02*
X008894Y008312D01*
X008969Y008375D02*
X008074Y008375D01*
X008149Y008438D02*
X009044Y008438D01*
X009119Y008501D02*
X008224Y008501D01*
X008299Y008564D02*
X009194Y008564D01*
X009160Y008627D02*
X008374Y008627D01*
X008449Y008690D02*
X009107Y008690D01*
X009054Y008753D02*
X008524Y008753D01*
X008599Y008816D02*
X009001Y008816D01*
X008948Y008879D02*
X008674Y008879D01*
X008749Y008942D02*
X008895Y008942D01*
X008843Y009005D02*
X008824Y009005D01*
D16*
X008005Y009324D02*
X008095Y009234D01*
X007946Y008975D01*
X007659Y008898D01*
X007400Y009047D01*
X007323Y009334D01*
X007472Y009593D01*
X007759Y009670D01*
X008018Y009521D01*
X008095Y009234D01*
X007950Y009253D01*
X007857Y009091D01*
X007678Y009043D01*
X007516Y009136D01*
X007468Y009315D01*
X007561Y009477D01*
X007740Y009525D01*
X007902Y009432D01*
X007950Y009253D01*
X007805Y009272D01*
X007768Y009207D01*
X007697Y009188D01*
X007632Y009225D01*
X007613Y009296D01*
X007650Y009361D01*
X007721Y009380D01*
X007786Y009343D01*
X007805Y009272D01*
X008005Y001528D02*
X008095Y001618D01*
X008018Y001331D01*
X007759Y001182D01*
X007472Y001259D01*
X007323Y001518D01*
X007400Y001805D01*
X007659Y001954D01*
X007946Y001877D01*
X008095Y001618D01*
X007950Y001599D01*
X007902Y001420D01*
X007740Y001327D01*
X007561Y001375D01*
X007468Y001537D01*
X007516Y001716D01*
X007678Y001809D01*
X007857Y001761D01*
X007950Y001599D01*
X007805Y001580D01*
X007786Y001509D01*
X007721Y001472D01*
X007650Y001491D01*
X007613Y001556D01*
X007632Y001627D01*
X007697Y001664D01*
X007768Y001645D01*
X007805Y001580D01*
D17*
X008728Y002339D03*
X006607Y003851D03*
X004048Y006410D03*
X002257Y005938D03*
X009363Y007788D03*
X009988Y004938D03*
M02*
